<svg version="1.1" preserveAspectRatio="none" xmlns="http://www.w3.org/2000/svg" width="500" height="500" viewBox="0 0 500 500"><rect width="100%" height="100%" fill="#5CB8FF" fill-opacity="1"/><svg viewBox="81.5925 398.2843 465.5871 276.4919" width="333" height="197.75419615363052" x="83.5px" y="151.1229px" xmlns="http://www.w3.org/2000/svg" xmlns:xlink="http://www.w3.org/1999/xlink" preserveAspectRatio="none"><defs></defs><style>.aLgOaV3zRcolors-3 {fill:#58FF75;fill-opacity:1;}.aLgOaV3zRcolors-4 {fill:#3A9AF9;fill-opacity:1;}.aLgOaV3zRcolors-5 {fill:#3288DD;fill-opacity:1;}.aLgOaV3zRcolors-6 {fill:#00B0BE;fill-opacity:1;}.aLgOaV3zRcolors-7 {fill:#89FF9D;fill-opacity:1;}.companyName {fill:#FFFFFF;fill-opacity:1;}.icon1 {fill:#005477;fill-opacity:1;}.icon2 {fill:#FFFFFF;fill-opacity:1;}.icon3 {fill:#007B8B;fill-opacity:1;}.icon3-str {stroke:#007B8B;stroke-opacity:1;}.text {fill:#FFFFFF;fill-opacity:1;}</style><g opacity="1" transform="rotate(0 81.5925 646.7762)">
<svg width="465.5871" height="28" x="81.5925" y="646.7762" version="1.1" preserveAspectRatio="none" viewBox="1.96 -31 648.4399999999999 39">
  <g transform="matrix(1 0 0 1 0 0)" class="text"><path id="id-6izo4zJp29" d="M19.12-23.76Q17.56-24.60 15.80-25.12Q14.04-25.64 12.48-25.64L12.48-25.64Q10.12-25.64 8.74-24.58Q7.36-23.52 7.36-21.68L7.36-21.68Q7.36-19.88 8.98-18.74Q10.60-17.60 13.60-16.48L13.60-16.48Q15.84-15.68 17.38-14.74Q18.92-13.80 19.94-12.14Q20.96-10.48 20.96-7.92L20.96-7.92Q20.96-5.60 19.80-3.72Q18.64-1.84 16.50-0.76Q14.36 0.32 11.48 0.32L11.48 0.32Q8.80 0.32 6.32-0.54Q3.84-1.40 1.96-2.72L1.96-2.72L3.68-5.80Q5.16-4.68 7.24-3.90Q9.32-3.12 11.12-3.12L11.12-3.12Q13.44-3.12 15.18-4.32Q16.92-5.52 16.92-7.88L16.92-7.88Q16.92-9.88 15.46-11.06Q14-12.24 11.36-13.28L11.36-13.28Q8.92-14.20 7.30-15.08Q5.68-15.96 4.52-17.50Q3.36-19.04 3.36-21.36L3.36-21.36Q3.36-24.76 5.74-26.86Q8.12-28.96 11.92-29.08L11.92-29.08Q16.60-29.08 20.60-26.76L20.60-26.76L19.12-23.76Z M42.20-16.56L45.92-16.56L45.92 0L42.56 0L42.32-3.16Q41.48-1.48 39.72-0.42Q37.96 0.64 35.80 0.64L35.80 0.64Q33.52 0.64 32.06-0.74Q30.60-2.12 30.52-4.32L30.52-4.32L30.52-16.56L34.24-16.56L34.24-5.64Q34.32-4.24 35.06-3.42Q35.80-2.60 37.28-2.56L37.28-2.56Q38.64-2.56 39.76-3.38Q40.88-4.20 41.54-5.64Q42.20-7.08 42.20-8.84L42.20-8.84L42.20-16.56Z M69.96-16.56L73.40-16.56L73.40 0L69.68 0L69.68-2.72Q68.80-1.56 67.12-0.58Q65.44 0.40 63.32 0.40L63.32 0.40Q60.96 0.40 59.06-0.62Q57.16-1.64 56.06-3.60Q54.96-5.56 54.96-8.28L54.96-8.28Q54.96-11 56.10-13.02Q57.24-15.04 59.18-16.14Q61.12-17.24 63.48-17.24L63.48-17.24Q65.60-17.24 67.16-16.32Q68.72-15.40 69.68-13.92L69.68-13.92L69.96-16.56ZM64.32-2.68Q66.36-2.68 67.82-3.82Q69.28-4.96 69.68-6.92L69.68-6.92L69.68-10.20Q69.20-11.96 67.68-13.06Q66.16-14.16 64.20-14.16L64.20-14.16Q62.72-14.16 61.46-13.44Q60.20-12.72 59.46-11.42Q58.72-10.12 58.72-8.48L58.72-8.48Q58.72-6.88 59.48-5.56Q60.24-4.24 61.52-3.46Q62.80-2.68 64.32-2.68L64.32-2.68Z M100.76 8L98.52 5.68Q100.92 3.64 100.92-0.04L100.92-0.04L100.92-16.56L104.68-16.56L104.68 0.12Q104.68 2.96 103.74 4.88Q102.80 6.80 100.76 8L100.76 8ZM100.64-22.52Q100.64-23.40 101.32-24Q102-24.60 102.88-24.60L102.88-24.60Q103.76-24.60 104.42-24Q105.08-23.40 105.08-22.52L105.08-22.52Q105.08-21.64 104.42-21.04Q103.76-20.44 102.88-20.44L102.88-20.44Q102-20.44 101.32-21.04Q100.64-21.64 100.64-22.52L100.64-22.52Z M113.48-8.44Q113.48-10.88 114.66-12.90Q115.84-14.92 117.94-16.08Q120.04-17.24 122.68-17.24L122.68-17.24Q125.32-17.24 127.38-16.08Q129.44-14.92 130.58-12.92Q131.72-10.92 131.72-8.44L131.72-8.44Q131.72-5.96 130.58-3.94Q129.44-1.92 127.36-0.76Q125.28 0.40 122.60 0.40L122.60 0.40Q120 0.40 117.92-0.70Q115.84-1.80 114.66-3.80Q113.48-5.80 113.48-8.44L113.48-8.44ZM117.24-8.40Q117.24-6.84 117.94-5.52Q118.64-4.20 119.86-3.44Q121.08-2.68 122.56-2.68L122.56-2.68Q124.88-2.68 126.40-4.32Q127.92-5.96 127.92-8.40L127.92-8.40Q127.92-10.84 126.40-12.50Q124.88-14.16 122.56-14.16L122.56-14.16Q121.04-14.16 119.84-13.38Q118.64-12.60 117.94-11.28Q117.24-9.96 117.24-8.40L117.24-8.40Z M144.32-12.64Q144.96-14 146.14-15.04Q147.32-16.08 148.64-16.64Q149.96-17.20 150.96-17.24L150.96-17.24L150.80-13.52Q149.00-13.60 147.54-12.80Q146.08-12 145.26-10.58Q144.44-9.16 144.44-7.56L144.44-7.56L144.44 0L140.72 0L140.72-16.56L144.04-16.56L144.32-12.64Z M170.04-17.20Q172.36-17.20 173.88-15.82Q175.40-14.44 175.44-12.24L175.44-12.24L175.44 0L171.68 0L171.68-10.96Q171.60-12.36 170.84-13.16Q170.08-13.96 168.56-14L168.56-14Q166.36-14 164.92-12.24Q163.48-10.48 163.48-7.76L163.48-7.76L163.48 0L159.76 0L159.76-16.56L163.12-16.56L163.36-13.36Q164.24-15.16 166-16.18Q167.76-17.20 170.04-17.20L170.04-17.20Z M199.44-16.56L202.88-16.56L202.88 0L199.16 0L199.16-2.72Q198.28-1.56 196.60-0.58Q194.92 0.40 192.80 0.40L192.80 0.40Q190.44 0.40 188.54-0.62Q186.64-1.64 185.54-3.60Q184.44-5.56 184.44-8.28L184.44-8.28Q184.44-11 185.58-13.02Q186.72-15.04 188.66-16.14Q190.60-17.24 192.96-17.24L192.96-17.24Q195.08-17.24 196.64-16.32Q198.20-15.40 199.16-13.92L199.16-13.92L199.44-16.56ZM193.80-2.68Q195.84-2.68 197.30-3.82Q198.76-4.96 199.16-6.92L199.16-6.92L199.16-10.20Q198.68-11.96 197.16-13.06Q195.64-14.16 193.68-14.16L193.68-14.16Q192.20-14.16 190.94-13.44Q189.68-12.72 188.94-11.42Q188.20-10.12 188.20-8.48L188.20-8.48Q188.20-6.88 188.96-5.56Q189.72-4.24 191-3.46Q192.28-2.68 193.80-2.68L193.80-2.68Z M226.92-31L230.64-31L230.64 0L226.88 0L226.88-2.60Q225.68-1.20 223.94-0.40Q222.20 0.40 220.12 0.40L220.12 0.40Q217.80 0.40 215.92-0.72Q214.04-1.84 212.98-3.86Q211.92-5.88 211.92-8.52L211.92-8.52Q211.92-11.20 213.04-13.18Q214.16-15.16 216.12-16.20Q218.08-17.24 220.56-17.24L220.56-17.24Q222.44-17.24 224.18-16.46Q225.92-15.68 226.92-14.32L226.92-14.32L226.92-31ZM221.28-2.80Q223.44-2.80 224.94-3.96Q226.44-5.12 226.88-7.08L226.88-7.08L226.88-10.20Q226.40-12 224.84-13.14Q223.28-14.28 221.28-14.28L221.28-14.28Q219.76-14.28 218.48-13.54Q217.20-12.80 216.44-11.50Q215.68-10.20 215.68-8.56L215.68-8.56Q215.68-6.96 216.44-5.64Q217.20-4.32 218.48-3.56Q219.76-2.80 221.28-2.80L221.28-2.80Z M254.64-16.56L258.08-16.56L258.08 0L254.36 0L254.36-2.72Q253.48-1.56 251.80-0.58Q250.12 0.40 248 0.40L248 0.40Q245.64 0.40 243.74-0.62Q241.84-1.64 240.74-3.60Q239.64-5.56 239.64-8.28L239.64-8.28Q239.64-11 240.78-13.02Q241.92-15.04 243.86-16.14Q245.80-17.24 248.16-17.24L248.16-17.24Q250.28-17.24 251.84-16.32Q253.40-15.40 254.36-13.92L254.36-13.92L254.64-16.56ZM249-2.68Q251.04-2.68 252.50-3.82Q253.96-4.96 254.36-6.92L254.36-6.92L254.36-10.20Q253.88-11.96 252.36-13.06Q250.84-14.16 248.88-14.16L248.88-14.16Q247.40-14.16 246.14-13.44Q244.88-12.72 244.14-11.42Q243.40-10.12 243.40-8.48L243.40-8.48Q243.40-6.88 244.16-5.56Q244.92-4.24 246.20-3.46Q247.48-2.68 249-2.68L249-2.68Z M271.96-3.52L269.64 2.08L268.48 4.88L265.44 4.88L266.48 2.08Q268.28-2.76 268.56-3.52L268.56-3.52L271.96-3.52Z M307.60-17.20Q309.92-17.20 311.44-15.82Q312.96-14.44 313-12.24L313-12.24L313 0L309.24 0L309.24-10.96Q309.16-12.36 308.40-13.16Q307.64-13.96 306.12-14L306.12-14Q303.92-14 302.48-12.24Q301.04-10.48 301.04-7.76L301.04-7.76L301.04 0L297.32 0L297.32-16.56L300.68-16.56L300.92-13.36Q301.80-15.16 303.56-16.18Q305.32-17.20 307.60-17.20L307.60-17.20Z M322-8.44Q322-10.88 323.18-12.90Q324.36-14.92 326.46-16.08Q328.56-17.24 331.20-17.24L331.20-17.24Q333.84-17.24 335.90-16.08Q337.96-14.92 339.10-12.92Q340.24-10.92 340.24-8.44L340.24-8.44Q340.24-5.96 339.10-3.94Q337.96-1.92 335.88-0.76Q333.80 0.40 331.12 0.40L331.12 0.40Q328.52 0.40 326.44-0.70Q324.36-1.80 323.18-3.80Q322-5.80 322-8.44L322-8.44ZM325.76-8.40Q325.76-6.84 326.46-5.52Q327.16-4.20 328.38-3.44Q329.60-2.68 331.08-2.68L331.08-2.68Q333.40-2.68 334.92-4.32Q336.44-5.96 336.44-8.40L336.44-8.40Q336.44-10.84 334.92-12.50Q333.40-14.16 331.08-14.16L331.08-14.16Q329.56-14.16 328.36-13.38Q327.16-12.60 326.46-11.28Q325.76-9.96 325.76-8.40L325.76-8.40Z M353.92 0.36Q352.08 0.36 350.42-0.28Q348.76-0.92 347.72-2.16L347.72-2.16L349.32-4.32Q350.32-3.36 351.42-2.84Q352.52-2.32 353.60-2.32L353.60-2.32Q354.92-2.32 355.76-2.84Q356.60-3.36 356.60-4.44L356.60-4.44Q356.60-5.28 356.08-5.80Q355.56-6.32 354.90-6.56Q354.24-6.80 352.68-7.28L352.68-7.28Q348.44-8.64 348.44-12.12L348.44-12.12Q348.44-14.20 349.98-15.68Q351.52-17.16 354.28-17.16L354.28-17.16Q356.04-17.16 357.40-16.72Q358.76-16.28 359.92-15.32L359.92-15.32L358.44-13.04Q357.80-13.72 356.82-14.12Q355.84-14.52 354.96-14.56L354.96-14.56Q353.84-14.56 353.04-14.02Q352.24-13.48 352.24-12.56L352.24-12.56Q352.24-11.80 352.76-11.30Q353.28-10.80 353.84-10.58Q354.40-10.36 356.04-9.84L356.04-9.84Q358.08-9.16 359.22-8.08Q360.36-7 360.36-5.16L360.36-5.16Q360.36-2.76 358.68-1.20Q357 0.36 353.92 0.36L353.92 0.36Z M374.24 0.36Q372.40 0.36 370.74-0.28Q369.08-0.92 368.04-2.16L368.04-2.16L369.64-4.32Q370.64-3.36 371.74-2.84Q372.84-2.32 373.92-2.32L373.92-2.32Q375.24-2.32 376.08-2.84Q376.92-3.36 376.92-4.44L376.92-4.44Q376.92-5.28 376.40-5.80Q375.88-6.32 375.22-6.56Q374.56-6.80 373-7.28L373-7.28Q368.76-8.64 368.76-12.12L368.76-12.12Q368.76-14.20 370.30-15.68Q371.84-17.16 374.60-17.16L374.60-17.16Q376.36-17.16 377.72-16.72Q379.08-16.28 380.24-15.32L380.24-15.32L378.76-13.04Q378.12-13.72 377.14-14.12Q376.16-14.52 375.28-14.56L375.28-14.56Q374.16-14.56 373.36-14.02Q372.56-13.48 372.56-12.56L372.56-12.56Q372.56-11.80 373.08-11.30Q373.60-10.80 374.16-10.58Q374.72-10.36 376.36-9.84L376.36-9.84Q378.40-9.16 379.54-8.08Q380.68-7 380.68-5.16L380.68-5.16Q380.68-2.76 379-1.20Q377.32 0.36 374.24 0.36L374.24 0.36Z M388.44-8.44Q388.44-10.88 389.62-12.90Q390.80-14.92 392.90-16.08Q395-17.24 397.64-17.24L397.64-17.24Q400.28-17.24 402.34-16.08Q404.40-14.92 405.54-12.92Q406.68-10.92 406.68-8.44L406.68-8.44Q406.68-5.96 405.54-3.94Q404.40-1.92 402.32-0.76Q400.24 0.40 397.56 0.40L397.56 0.40Q394.96 0.40 392.88-0.70Q390.80-1.80 389.62-3.80Q388.44-5.80 388.44-8.44L388.44-8.44ZM392.20-8.40Q392.20-6.84 392.90-5.52Q393.60-4.20 394.82-3.44Q396.04-2.68 397.52-2.68L397.52-2.68Q399.84-2.68 401.36-4.32Q402.88-5.96 402.88-8.40L402.88-8.40Q402.88-10.84 401.36-12.50Q399.84-14.16 397.52-14.16L397.52-14.16Q396-14.16 394.80-13.38Q393.60-12.60 392.90-11.28Q392.20-9.96 392.20-8.40L392.20-8.40Z M433.92-23.84L437.68-23.84L437.68-16.52L442.20-16.52L442.20-13.56L437.68-13.56L437.68 0L433.92 0L433.92-13.56L430.88-13.56L430.88-16.52L433.92-16.52L433.92-23.84Z M454.32-12.64Q454.96-14 456.14-15.04Q457.32-16.08 458.64-16.64Q459.96-17.20 460.96-17.24L460.96-17.24L460.80-13.52Q459.00-13.60 457.54-12.80Q456.08-12 455.26-10.58Q454.44-9.16 454.44-7.56L454.44-7.56L454.44 0L450.72 0L450.72-16.56L454.04-16.56L454.32-12.64Z M482.92-16.56L486.36-16.56L486.36 0L482.64 0L482.64-2.72Q481.76-1.56 480.08-0.58Q478.40 0.40 476.28 0.40L476.28 0.40Q473.92 0.40 472.02-0.62Q470.12-1.64 469.02-3.60Q467.92-5.56 467.92-8.28L467.92-8.28Q467.92-11 469.06-13.02Q470.20-15.04 472.14-16.14Q474.08-17.24 476.44-17.24L476.44-17.24Q478.56-17.24 480.12-16.32Q481.68-15.40 482.64-13.92L482.64-13.92L482.92-16.56ZM477.28-2.68Q479.32-2.68 480.78-3.82Q482.24-4.96 482.64-6.92L482.64-6.92L482.64-10.20Q482.16-11.96 480.64-13.06Q479.12-14.16 477.16-14.16L477.16-14.16Q475.68-14.16 474.42-13.44Q473.16-12.72 472.42-11.42Q471.68-10.12 471.68-8.48L471.68-8.48Q471.68-6.88 472.44-5.56Q473.20-4.24 474.48-3.46Q475.76-2.68 477.28-2.68L477.28-2.68Z M507.12-17.20Q509.44-17.20 510.96-15.82Q512.48-14.44 512.52-12.24L512.52-12.24L512.52 0L508.76 0L508.76-10.96Q508.68-12.36 507.92-13.16Q507.16-13.96 505.64-14L505.64-14Q503.44-14 502-12.24Q500.56-10.48 500.56-7.76L500.56-7.76L500.56 0L496.84 0L496.84-16.56L500.20-16.56L500.44-13.36Q501.32-15.16 503.08-16.18Q504.84-17.20 507.12-17.20L507.12-17.20Z M527.64 0.36Q525.80 0.36 524.14-0.28Q522.48-0.92 521.44-2.16L521.44-2.16L523.04-4.32Q524.04-3.36 525.14-2.84Q526.24-2.32 527.32-2.32L527.32-2.32Q528.64-2.32 529.48-2.84Q530.32-3.36 530.32-4.44L530.32-4.44Q530.32-5.28 529.80-5.80Q529.28-6.32 528.62-6.56Q527.96-6.80 526.40-7.28L526.40-7.28Q522.16-8.64 522.16-12.12L522.16-12.12Q522.16-14.20 523.70-15.68Q525.24-17.16 528-17.16L528-17.16Q529.76-17.16 531.12-16.72Q532.48-16.28 533.64-15.32L533.64-15.32L532.16-13.04Q531.52-13.72 530.54-14.12Q529.56-14.52 528.68-14.56L528.68-14.56Q527.56-14.56 526.76-14.02Q525.96-13.48 525.96-12.56L525.96-12.56Q525.96-11.80 526.48-11.30Q527-10.80 527.56-10.58Q528.12-10.36 529.76-9.84L529.76-9.84Q531.80-9.16 532.94-8.08Q534.08-7 534.08-5.16L534.08-5.16Q534.08-2.76 532.40-1.20Q530.72 0.36 527.64 0.36L527.64 0.36Z M553.76-17.24Q556.08-17.24 557.96-16.12Q559.84-15 560.92-12.98Q562.00-10.96 562.00-8.32L562.00-8.32Q562.00-5.72 560.84-3.74Q559.68-1.76 557.64-0.68Q555.60 0.40 553.08 0.40L553.08 0.40Q551.28 0.40 549.64-0.38Q548.00-1.16 547.00-2.48L547.00-2.48L547.00 7.96L543.28 7.96L543.28-16.84L546.52-16.84L546.84-14.04Q548.12-15.48 549.90-16.36Q551.68-17.24 553.76-17.24L553.76-17.24ZM552.36-2.60Q553.92-2.60 555.26-3.34Q556.60-4.08 557.40-5.38Q558.20-6.68 558.20-8.28L558.20-8.28Q558.20-9.92 557.46-11.24Q556.72-12.56 555.44-13.32Q554.16-14.08 552.60-14.08L552.60-14.08Q550.48-14.08 548.98-12.90Q547.48-11.72 547.00-9.72L547.00-9.72L547.00-6.96Q547.32-5.04 548.82-3.82Q550.32-2.60 552.36-2.60L552.36-2.60Z M569.56-8.44Q569.56-10.88 570.74-12.90Q571.92-14.92 574.02-16.08Q576.12-17.24 578.76-17.24L578.76-17.24Q581.40-17.24 583.46-16.08Q585.52-14.92 586.66-12.92Q587.80-10.92 587.80-8.44L587.80-8.44Q587.80-5.96 586.66-3.94Q585.52-1.92 583.44-0.76Q581.36 0.40 578.68 0.40L578.68 0.40Q576.08 0.40 574.00-0.70Q571.92-1.80 570.74-3.80Q569.56-5.80 569.56-8.44L569.56-8.44ZM573.32-8.40Q573.32-6.84 574.02-5.52Q574.72-4.20 575.94-3.44Q577.16-2.68 578.64-2.68L578.64-2.68Q580.96-2.68 582.48-4.32Q584.00-5.96 584.00-8.40L584.00-8.40Q584.00-10.84 582.48-12.50Q580.96-14.16 578.64-14.16L578.64-14.16Q577.12-14.16 575.92-13.38Q574.72-12.60 574.02-11.28Q573.32-9.96 573.32-8.40L573.32-8.40Z M600.40-12.64Q601.04-14 602.22-15.04Q603.40-16.08 604.72-16.64Q606.04-17.20 607.04-17.24L607.04-17.24L606.88-13.52Q605.08-13.60 603.62-12.80Q602.16-12 601.34-10.58Q600.52-9.16 600.52-7.56L600.52-7.56L600.52 0L596.80 0L596.80-16.56L600.12-16.56L600.40-12.64Z M617.44-23.84L621.20-23.84L621.20-16.52L625.72-16.52L625.72-13.56L621.20-13.56L621.20 0L617.44 0L617.44-13.56L614.40-13.56L614.40-16.52L617.44-16.52L617.44-23.84Z M642-2.80Q644.08-2.80 646.04-4.24L646.04-4.24L647.76-1.48Q646.44-0.60 644.90-0.10Q643.36 0.40 641.92 0.40L641.92 0.40Q639.16 0.40 637.10-0.74Q635.04-1.88 633.92-3.88Q632.80-5.88 632.80-8.40L632.80-8.40Q632.80-10.84 634.02-12.86Q635.24-14.88 637.36-16.06Q639.48-17.24 642-17.24L642-17.24Q645.24-17.24 647.42-15.34Q649.60-13.44 650.40-10.04L650.40-10.04L637.28-5.44Q638-4.20 639.22-3.50Q640.44-2.80 642-2.80L642-2.80ZM641.72-14.28Q639.44-14.28 637.96-12.68Q636.48-11.08 636.48-8.60L636.48-8.60Q636.48-8 636.52-7.68L636.52-7.68L646.16-11.24Q645.56-12.60 644.46-13.44Q643.36-14.28 641.72-14.28L641.72-14.28Z"/></g>
</svg>
</g><g opacity="1" transform="rotate(0 131.932 558.7762)">
<svg width="364.9081" height="70" x="131.932" y="558.7762" version="1.1" preserveAspectRatio="none" viewBox="2.08 -29.2 154.71999999999997 29.68">
  <g transform="matrix(1 0 0 1 0 0)" class="companyName"><path id="id-D6z1nYkh6" d="M9.48-0.60Q10.92-0.60 11.76-1.24Q12.60-1.88 13-3.54Q13.40-5.20 13.40-8.24L13.40-8.24L13.40-25.96Q13.40-26.40 13.22-26.56Q13.04-26.72 12.44-26.84L12.44-26.84L10.72-27.20L10.72-28L24-28L24-27.20L22.52-26.88Q21.92-26.76 21.74-26.60Q21.56-26.44 21.56-26L21.56-26L21.56-9.04Q21.56-4 18.34-1.76Q15.12 0.48 9.80 0.48L9.80 0.48Q8.12 0.48 5.94 0.02Q3.76-0.44 2.08-1.20L2.08-1.20L3-8.24L4.04-8.24Q4.56-5.12 5.30-3.46Q6.04-1.80 7.02-1.20Q8-0.60 9.48-0.60L9.48-0.60Z M41.60 0Q40.48 0 40.02-0.46Q39.56-0.92 39.56-2L39.56-2L39.56-2.20Q36.88 0.40 31.92 0.40L31.92 0.40Q29.32 0.40 27.86-0.78Q26.40-1.96 26.40-4.44L26.40-4.44Q26.40-6.92 27.86-8.32Q29.32-9.72 32.12-10.32Q34.92-10.92 39.56-11.04L39.56-11.04L39.56-13.96Q39.56-16.20 38.68-17.18Q37.80-18.16 35.60-18.16L35.60-18.16Q33.76-18.16 32.18-17.66Q30.60-17.16 28.96-16.16L28.96-16.16L28.44-16.92Q30.36-18.28 33.06-19.10Q35.76-19.92 39.12-19.92L39.12-19.92Q43.64-19.92 45.56-18.14Q47.48-16.36 47.48-13L47.48-13L47.48-1.92Q47.48-1.48 47.66-1.32Q47.84-1.16 48.44-1.04L48.44-1.04L49.84-0.72L49.84 0L41.60 0ZM36.40-2.12Q38.12-2.12 39.56-3.48L39.56-3.48L39.56-9.96Q37.32-9.80 36.16-9.26Q35-8.72 34.58-7.72Q34.16-6.72 34.16-5L34.16-5Q34.16-3.48 34.70-2.80Q35.24-2.12 36.40-2.12L36.40-2.12Z M69.20-2Q69.20-1.56 69.38-1.40Q69.56-1.24 70.16-1.12L70.16-1.12L71.64-0.80L71.64 0L58.60 0L58.60-0.80L60.08-1.12Q60.68-1.24 60.86-1.40Q61.04-1.56 61.04-2L61.04-2L61.04-26.88L60.12-26.88Q57.68-26.88 56.34-26.08Q55-25.28 54.30-24Q53.60-22.72 52.56-19.92L52.56-19.92L51.68-19.92L51.68-28L78.56-28L78.56-19.92L77.68-19.92Q76.64-22.72 75.94-24Q75.24-25.28 73.90-26.08Q72.56-26.88 70.12-26.88L70.12-26.88L69.20-26.88L69.20-2Z M90.84-16.24Q94.32-19.80 97.92-19.80L97.92-19.80Q99.24-19.80 100-19.48L100-19.48L99.40-13.24L99.12-13.24L90.92-15.04L90.92-1.92Q90.92-1.48 91.10-1.30Q91.28-1.12 91.84-1L91.84-1L93.20-0.72L93.20 0L80.56 0L80.56-0.72L81.96-1.04Q82.56-1.16 82.74-1.32Q82.92-1.48 82.92-1.92L82.92-1.92L82.92-17.04Q82.92-17.48 82.74-17.64Q82.56-17.80 81.96-17.92L81.96-17.92L80.56-18.24L80.56-18.96L90.16-20.16L90.84-20.16L90.84-16.24Z M111.44-10.24Q111.48-5.80 112.86-3.48Q114.24-1.16 118.04-1.16L118.04-1.16Q119.92-1.16 121.38-1.72Q122.84-2.28 124.40-3.32L124.40-3.32L124.92-2.56Q121.20 0.48 115.08 0.48L115.08 0.48Q109.56 0.48 106.38-2.18Q103.20-4.84 103.20-9.96L103.20-9.96Q103.20-14.80 106.44-17.36Q109.68-19.92 115.52-19.92L115.52-19.92Q118.84-19.92 121.12-18.88Q123.40-17.84 124.50-16.10Q125.60-14.36 125.60-12.24L125.60-12.24Q125.60-11.16 125.40-10.24L125.40-10.24L111.44-10.24ZM115.28-18.96Q113.08-18.96 112.28-17.12Q111.48-15.28 111.44-11.28L111.44-11.28L118.16-11.28L118.16-14.28Q118.16-16.72 117.58-17.84Q117.00-18.96 115.28-18.96L115.28-18.96Z M146.80-16.32Q146.80-18.28 145.52-18.44L145.52-18.44L145.08-18.48L145.08-19.20Q147.48-19.92 149.76-19.92L149.76-19.92Q152.12-19.92 153.04-19.08Q153.96-18.24 153.96-16.64L153.96-16.64Q153.96-14.44 152.28-12.64Q150.60-10.84 146.40-10.24L146.40-10.24Q147.48-9.96 148.20-9.40Q148.92-8.84 149.84-7.68L149.84-7.68L154.28-1.84Q154.64-1.40 154.88-1.22Q155.12-1.04 155.56-0.96L155.56-0.96L156.80-0.72L156.80 0L149.12 0Q148.04 0 147.44-0.34Q146.84-0.68 146.40-1.36L146.40-1.36L140.20-10L138.84-10L138.84-1.92Q138.84-1.48 139.02-1.30Q139.20-1.12 139.76-1L139.76-1L141.12-0.72L141.12 0L128.48 0L128.48-0.72L129.88-1.04Q130.48-1.16 130.66-1.32Q130.84-1.48 130.84-1.92L130.84-1.92L130.84-26.08Q130.84-26.52 130.66-26.68Q130.48-26.84 129.88-26.96L129.88-26.96L128.48-27.28L128.48-28L138.08-29.20L138.84-29.20L138.84-11.04L141.16-11.04Q144.32-11.04 145.56-12.42Q146.80-13.80 146.80-16.32L146.80-16.32Z"/></g>
</svg>
</g><g opacity="1" transform="rotate(0 223.159 398.2843)">
<svg width="182.4541" height="130.4919" x="223.159" y="398.2843" version="1.1" preserveAspectRatio="none" viewBox="10.5471830368042 22.5 82.49394226074219 59">
  <g transform="matrix(1 0 0 1 0 0)" class="icon1"><switch><g><g><g><path d="M50,81.5c-16.3,0-29.5-13.2-29.5-29.5S33.7,22.5,50,22.5c6.8,0,13.5,2.4,18.8,6.7c3.3,2.7,6,6.2,7.8,10      c0.4,0.7,0,1.6-0.7,2c-0.7,0.4-1.6,0-2-0.7c-1.7-3.4-4.1-6.5-7-9c-4.7-3.9-10.7-6.1-16.9-6.1c-14.6,0-26.5,11.9-26.5,26.5      S35.4,78.5,50,78.5c10.3,0,19.7-6,24.1-15.4c0.3-0.8,1.2-1.1,2-0.7c0.8,0.3,1.1,1.2,0.7,2C72,74.8,61.5,81.5,50,81.5z"></path></g><g><path d="M27.7,71.1c-8.8,0-15-2.4-16.7-6.9C9.2,59.3,12.8,53,21.2,46.7c0.7-0.5,1.6-0.4,2.1,0.3c0.5,0.7,0.4,1.6-0.3,2.1      c-7,5.3-10.4,10.6-9.2,14.1c2,5.4,15.8,7.3,35.6,1.2c0.8-0.2,1.6,0.2,1.9,1c0.2,0.8-0.2,1.6-1,1.9      C41.9,69.9,34.1,71.1,27.7,71.1z"></path></g><g><path d="M87.6,37.8c-0.6,0-1.2-0.4-1.4-1c-1.3-3.5-7.3-5.3-16.1-4.9l-2.3,0c-0.8,0-1.5-0.7-1.5-1.5s0.7-1.5,1.5-1.5H70      c10.4-0.5,17.2,1.9,19,6.9c0.3,0.8-0.1,1.6-0.9,1.9C87.9,37.8,87.8,37.8,87.6,37.8z"></path></g><g><g><path d="M50,67.1c-0.2,0-0.4,0-0.6-0.1l-7.3-3.4c-0.8-0.3-1.1-1.2-0.7-2c0.4-0.8,1.2-1.1,2-0.7l7.3,3.4c0.8,0.3,1.1,1.2,0.7,2       C51.1,66.8,50.6,67.1,50,67.1z"></path></g><g><path d="M46.6,74.4c-0.2,0-0.4,0-0.6-0.1c-0.8-0.3-1.1-1.2-0.7-2l3.4-7.3c0.4-0.8,1.2-1.1,2-0.7c0.8,0.3,1.1,1.2,0.7,2L48,73.5       C47.7,74.1,47.2,74.4,46.6,74.4z"></path></g></g></g><g><path d="M58.6,64c-0.2,0-0.4,0-0.6-0.1l-12-5.5c-0.6-0.3-1-1-0.8-1.7s0.7-1.2,1.4-1.2l11.9-0.4l4.3-2.6l-6.7-7.2     c-0.3-0.3-0.4-0.7-0.4-1.1c0-0.4,0.2-0.8,0.5-1.1c0.2-0.1,1.7-1.4,4.7-1.4c3.7,0,8,1.9,12.8,5.5l10.2-4.7     c0.6-0.3,1.5-0.4,2.5-0.4c1.9,0,5.4,0.5,6.3,2.6c0.4,0.9,0.8,2.5-1,4c-0.9,0.7-2.3,1.4-4,2.2L59.2,63.9C59,64,58.8,64,58.6,64z      M53,58.3l5.6,2.5l27.7-12.6c1.5-0.7,3.4-1.5,3.6-2c0,0,0-0.1-0.1-0.2c-0.2-0.3-1.7-0.8-3.6-0.8c-0.7,0-1.1,0.1-1.3,0.2l-11,5     c-0.5,0.2-1.1,0.2-1.6-0.2c-5.6-4.5-9.4-5.4-11.6-5.4c-0.4,0-0.8,0-1.2,0.1l6.5,6.9c0.3,0.3,0.5,0.8,0.4,1.2     c-0.1,0.4-0.3,0.8-0.7,1.1l-6.2,3.8c-0.2,0.1-0.5,0.2-0.7,0.2L53,58.3z"></path></g></g></switch></g>
</svg>
</g></svg></svg>